<?xml version="1.0" encoding="UTF-8" standalone="no"?>
<!DOCTYPE svg PUBLIC "-//W3C//DTD SVG 1.1//EN" "http://www.w3.org/Graphics/SVG/1.1/DTD/svg11.dtd">
<!-- Created with Vectornator (http://vectornator.io/) -->
<svg height="100%" stroke-miterlimit="10" style="fill-rule:nonzero;clip-rule:evenodd;stroke-linecap:round;stroke-linejoin:round;" version="1.1" viewBox="0 0 828.49 1024" width="100%" xml:space="preserve" xmlns="http://www.w3.org/2000/svg" xmlns:vectornator="http://vectornator.io" xmlns:xlink="http://www.w3.org/1999/xlink">
<defs/>
<clipPath id="ArtboardFrame">
<rect height="1024" width="828.49" x="0" y="0"/>
</clipPath>
<g clip-path="url(#ArtboardFrame)" id="Calque-1" vectornator:layerName="Calque 1">
<g opacity="1" vectornator:layerName="Grouper 1">
<path d="M95.1999 524.778L95.1999 421.023" fill="#000000" fill-rule="nonzero" opacity="0.995908" stroke="#000000" stroke-linecap="round" stroke-linejoin="round" stroke-width="11.9806" vectornator:layerName="Courbe 2"/>
<path d="M733.599 570.892L733.599 444.08" fill="#000000" fill-rule="nonzero" opacity="0.995908" stroke="#000000" stroke-linecap="round" stroke-linejoin="round" stroke-width="11.9806" vectornator:layerName="Courbe 3"/>
<path d="M254.8 109.756L254.8 6" fill="#000000" fill-rule="nonzero" opacity="0.995908" stroke="#000000" stroke-linecap="round" stroke-linejoin="round" stroke-width="11.9806" vectornator:layerName="Courbe 5"/>
<path d="M254.8 98.2273L140.8 374.909L186.4 421.023L186.4 743.818L95.1999 513.25L4 743.818L38.2 743.818L72.3999 836.045L95.1999 1020.5L368.8 1020.5L368.8 928.273C368.8 928.273 368.8 859.102 437.2 859.102C505.599 859.102 505.599 928.273 505.599 928.273L505.599 1020.5L779.199 1020.5L779.199 836.045L824.799 789.932L824.799 743.818L733.599 559.364C733.599 559.364 710.799 605.477 687.999 651.591C665.199 697.705 642.399 743.818 642.399 743.818L642.399 743.818L642.399 421.023L676.599 421.023L642.399 374.909L573.999 190.455L505.599 374.909L471.399 421.023L505.599 421.023L505.599 490.193L323.2 490.193L323.2 421.023L368.8 374.909L254.8 98.2273ZM505.599 582.42L505.599 605.477L505.599 720.761L460 674.648L414.4 743.818L323.2 743.818L323.2 582.42L346 536.307L482.799 536.307L505.599 582.42Z" fill="#000000" fill-rule="nonzero" opacity="0.995908" stroke="#000000" stroke-linecap="round" stroke-linejoin="round" stroke-width="7.18833"/>
<path d="M573.999 201.983L573.999 75.1705" fill="#000000" fill-rule="nonzero" opacity="1" stroke="#000000" stroke-linecap="round" stroke-linejoin="round" stroke-width="11.9806" vectornator:layerName="Courbe 10"/>
<path d="M300.4 444.08" fill="none" opacity="0.995908" stroke="#000000" stroke-linecap="butt" stroke-linejoin="round" stroke-width="11.9806" vectornator:layerName="Courbe 11"/>
</g>
</g>
</svg>