<?xml version="1.0" encoding="UTF-8"?>
<svg id="Layer_2" data-name="Layer 2" xmlns="http://www.w3.org/2000/svg" viewBox="0 0 500 500">
  <defs>
    <style>
      .cls-1 {
        fill: #1f1e48;
      }

      .cls-2 {
        fill: #fff;
      }
    </style>
  </defs>
  <g id="Layer_1-2" data-name="Layer 1">
    <path class="cls-1" d="m500,0v500H0V0h500Z"/>
    <path class="cls-2" d="m99.36,115c6.15-1.6,12.26-3.4,18.47-4.72,3.18-.67,6.55-.6,9.84-.66,13.35-.24,25.64,3.46,36.87,10.53,16.69,10.51,28.9,25.16,38.38,42.25,4.42,7.98,8.82,15.97,13.12,24.01,6.53,12.24,12.94,24.54,19.45,36.79,5.96,11.21,11.98,22.4,17.97,33.59.21.39.49.75,1.08,1.65.9-1.4,1.59-2.4,2.2-3.44,6.32-10.81,12.66-21.6,18.94-32.44,6.5-11.22,12.9-22.49,19.41-33.7,4.48-7.72,9.14-15.35,13.62-23.07,6.36-10.96,12.62-21.97,18.94-32.95.45-.77.88-1.61,1.53-2.2.57-.52,1.45-1.03,2.15-.98.53.04,1.29.93,1.41,1.55,1.11,5.61,2.47,11.21,2.95,16.88.19,2.29-1.32,4.91-2.55,7.1-8.8,15.67-17.67,31.3-26.62,46.88-7.58,13.18-15.36,26.25-22.96,39.42-5.91,10.23-11.68,20.54-17.52,30.81-5,8.8-10.1,17.55-15,26.41-3.62,6.55-5.47,13.67-6.1,21.14-2.36,1.18-3.11-.61-3.93-2.18-4.89-9.29-9.73-18.61-14.64-27.88-8.36-15.78-16.83-31.5-25.15-47.3-7.79-14.79-15.44-29.66-23.17-44.47-5.5-10.53-10.8-21.18-16.62-31.53-6.26-11.14-14.16-21.18-22.81-30.54-7-7.56-15.11-13.79-25.32-16.45-3.6-.94-7.41-1.01-11.1-1.62-1.04-.17-1.99-.86-2.98-1.31.05-.53.1-1.06.15-1.59Zm235.43,62.98c-5.28,9.28-10.55,18.57-15.8,27.87-4.43,7.85-8.96,15.65-13.16,23.63-.96,1.83-1.17,4.32-.96,6.44.43,4.29,1.42,8.52,2.1,12.79.9,5.65,1.62,11.32,2.59,16.96,1.87,10.91,4.14,21.76,5.74,32.71,1.67,11.43,4.41,22.57,8.42,33.35,6.42,17.25,16.4,31.97,31.09,43.45,11.92,9.31,25.28,14.55,40.21,15.63,9.99.72,19.83-.96,29.45-3.69.69-.2,1.2-1.06,2.4-2.19-2.31,0-3.61.04-4.92,0-7.71-.3-15.15-1.78-22.08-5.31-12.27-6.25-20.15-16.68-26.29-28.48-7.18-13.82-11.31-28.72-14.08-44-1.58-8.73-3.21-17.45-4.75-26.18-1.48-8.33-2.87-16.68-4.31-25.01-1.48-8.64-2.93-17.28-4.47-25.91-1.06-5.94-2.33-11.85-3.37-17.79-2.08-11.96-4.07-23.93-6.19-36.47-.82,1.11-1.28,1.62-1.62,2.21Zm-170.07,24.4c-.86,6.17-1.61,12.35-2.49,18.51-1.17,8.21-2.41,16.4-3.63,24.6-.78,5.26-1.59,10.52-2.37,15.79-.83,5.67-1.69,11.33-2.45,17.01-.89,6.66-1.64,13.33-2.55,19.98-.87,6.35-1.76,12.69-2.88,19-.6,3.36-1.07,6.99-2.7,9.87-3.79,6.7-10.1,9.46-17.73,9.38-3.38-.03-3.39.04-2.73,3.53,2.77,0,5.59,0,8.4,0,14.31,0,28.62-.01,42.94-.03,2.46,0,2.46-.03,2.15-2.44-4.79,1.05-8.78-.64-11.44-4.55-1.36-2-2.38-4.69-2.37-7.06.02-3.7,1.18-7.38,1.62-11.1.89-7.47,1.51-14.98,2.43-22.44,1.3-10.52,2.8-21.01,4.14-31.52,1.45-11.4,2.91-22.81,4.17-34.24.32-2.92.39-5.88-1.31-8.73-2.38-3.99-4.24-8.29-6.37-12.44-1.11-2.16-2.31-4.27-3.82-7.03-.46,1.72-.86,2.79-1.02,3.9Z"/>
  </g>
</svg>