<svg width="15" height="12" viewBox="0 0 15 12" fill="none" xmlns="http://www.w3.org/2000/svg">
<path d="M12.8094 3.10049C12.8181 3.22235 12.8181 3.34425 12.8181 3.46612C12.8181 7.18329 9.98886 11.4663 4.81786 11.4663C3.22477 11.4663 1.74487 11.0049 0.5 10.2041C0.726348 10.2302 0.94396 10.2389 1.17902 10.2389C2.4935 10.2389 3.70357 9.79493 4.66987 9.03756C3.4337 9.01143 2.39776 8.20184 2.04084 7.08755C2.21496 7.11365 2.38905 7.13106 2.57188 7.13106C2.82433 7.13106 3.0768 7.09623 3.31183 7.03532C2.02345 6.77414 1.05712 5.64245 1.05712 4.27571V4.2409C1.43144 4.44983 1.86674 4.58041 2.32809 4.5978C1.57072 4.09288 1.07454 3.23106 1.07454 2.25606C1.07454 1.73374 1.2138 1.25495 1.45756 0.837089C2.84172 2.54334 4.92231 3.6576 7.25533 3.7795C7.21181 3.57057 7.18568 3.35296 7.18568 3.13532C7.18568 1.58575 8.43926 0.323486 9.99752 0.323486C10.8071 0.323486 11.5384 0.662994 12.052 1.21143C12.6875 1.08956 13.2968 0.854507 13.8366 0.532416C13.6276 1.18533 13.1837 1.73377 12.6004 2.08196C13.1663 2.02105 13.7147 1.86432 14.2196 1.64671C13.8366 2.20383 13.3578 2.70002 12.8094 3.10049Z" fill="white"/>
</svg>
